<mxfile host="app.diagrams.net" modified="2023-10-09T15:06:43.292Z" agent="Mozilla/5.0 (Windows NT 10.0; Win64; x64) AppleWebKit/537.36 (KHTML, like Gecko) Chrome/117.0.0.0 Safari/537.36 Edg/117.0.2045.60" etag="qTUVXiRjC88XTrBJBl0p" version="22.0.4" type="device">
  <diagram name="Page-1" id="CwKETB_A1WJQCqfpSVEM">
    <mxGraphModel dx="-1045" dy="-2462" grid="1" gridSize="10" guides="1" tooltips="1" connect="1" arrows="1" fold="1" page="1" pageScale="1" pageWidth="850" pageHeight="1100" math="0" shadow="0">
      <root>
        <mxCell id="0" />
        <mxCell id="1" parent="0" />
        <mxCell id="_cARKvFAnIBeMRLMgY10-14" value="Менеджер синхронизации" style="html=1;dropTarget=0;whiteSpace=wrap;" vertex="1" parent="1">
          <mxGeometry x="3665" y="4170" width="180" height="90" as="geometry" />
        </mxCell>
        <mxCell id="_cARKvFAnIBeMRLMgY10-15" value="" style="shape=module;jettyWidth=8;jettyHeight=4;" vertex="1" parent="_cARKvFAnIBeMRLMgY10-14">
          <mxGeometry x="1" width="20" height="20" relative="1" as="geometry">
            <mxPoint x="-27" y="7" as="offset" />
          </mxGeometry>
        </mxCell>
        <mxCell id="_cARKvFAnIBeMRLMgY10-16" value="" style="rounded=0;orthogonalLoop=1;jettySize=auto;html=1;endArrow=halfCircle;endFill=0;endSize=6;strokeWidth=1;sketch=0;exitX=0.5;exitY=1;exitDx=0;exitDy=0;" edge="1" parent="1" source="_cARKvFAnIBeMRLMgY10-53" target="_cARKvFAnIBeMRLMgY10-18">
          <mxGeometry relative="1" as="geometry">
            <mxPoint x="3750" y="4285" as="sourcePoint" />
            <mxPoint x="3754" y="4280" as="targetPoint" />
          </mxGeometry>
        </mxCell>
        <mxCell id="_cARKvFAnIBeMRLMgY10-17" value="" style="rounded=0;orthogonalLoop=1;jettySize=auto;html=1;endArrow=oval;endFill=0;sketch=0;sourcePerimeterSpacing=0;targetPerimeterSpacing=0;endSize=10;exitX=0.419;exitY=-0.023;exitDx=0;exitDy=0;exitPerimeter=0;" edge="1" parent="1" source="_cARKvFAnIBeMRLMgY10-51" target="_cARKvFAnIBeMRLMgY10-18">
          <mxGeometry relative="1" as="geometry">
            <mxPoint x="3754" y="4300" as="sourcePoint" />
          </mxGeometry>
        </mxCell>
        <mxCell id="_cARKvFAnIBeMRLMgY10-18" value="" style="ellipse;whiteSpace=wrap;html=1;align=center;aspect=fixed;fillColor=none;strokeColor=none;resizable=0;perimeter=centerPerimeter;rotatable=0;allowArrows=0;points=[];outlineConnect=1;" vertex="1" parent="1">
          <mxGeometry x="3749" y="4280" width="10" height="10" as="geometry" />
        </mxCell>
        <mxCell id="_cARKvFAnIBeMRLMgY10-21" value="Интерфейс" style="html=1;dropTarget=0;whiteSpace=wrap;" vertex="1" parent="1">
          <mxGeometry x="3313.75" y="4511" width="180" height="90" as="geometry" />
        </mxCell>
        <mxCell id="_cARKvFAnIBeMRLMgY10-22" value="" style="shape=module;jettyWidth=8;jettyHeight=4;" vertex="1" parent="_cARKvFAnIBeMRLMgY10-21">
          <mxGeometry x="1" width="20" height="20" relative="1" as="geometry">
            <mxPoint x="-27" y="7" as="offset" />
          </mxGeometry>
        </mxCell>
        <mxCell id="_cARKvFAnIBeMRLMgY10-25" value="Configurator Store" style="html=1;dropTarget=0;whiteSpace=wrap;" vertex="1" parent="1">
          <mxGeometry x="3665" y="4440" width="180" height="90" as="geometry" />
        </mxCell>
        <mxCell id="_cARKvFAnIBeMRLMgY10-26" value="" style="shape=module;jettyWidth=8;jettyHeight=4;" vertex="1" parent="_cARKvFAnIBeMRLMgY10-25">
          <mxGeometry x="1" width="20" height="20" relative="1" as="geometry">
            <mxPoint x="-27" y="7" as="offset" />
          </mxGeometry>
        </mxCell>
        <mxCell id="_cARKvFAnIBeMRLMgY10-27" value="Подсистема рендеринга" style="swimlane;whiteSpace=wrap;html=1;" vertex="1" parent="1">
          <mxGeometry x="3220" y="4095" width="315" height="305" as="geometry" />
        </mxCell>
        <mxCell id="_cARKvFAnIBeMRLMgY10-28" value="Configuration Scene" style="html=1;dropTarget=0;whiteSpace=wrap;" vertex="1" parent="_cARKvFAnIBeMRLMgY10-27">
          <mxGeometry x="93.75" y="60" width="180" height="90" as="geometry" />
        </mxCell>
        <mxCell id="_cARKvFAnIBeMRLMgY10-29" value="" style="shape=module;jettyWidth=8;jettyHeight=4;" vertex="1" parent="_cARKvFAnIBeMRLMgY10-28">
          <mxGeometry x="1" width="20" height="20" relative="1" as="geometry">
            <mxPoint x="-27" y="7" as="offset" />
          </mxGeometry>
        </mxCell>
        <mxCell id="_cARKvFAnIBeMRLMgY10-30" value="Configuration Viewer" style="html=1;dropTarget=0;whiteSpace=wrap;" vertex="1" parent="_cARKvFAnIBeMRLMgY10-27">
          <mxGeometry x="93.75" y="180" width="180" height="90" as="geometry" />
        </mxCell>
        <mxCell id="_cARKvFAnIBeMRLMgY10-31" value="" style="shape=module;jettyWidth=8;jettyHeight=4;" vertex="1" parent="_cARKvFAnIBeMRLMgY10-30">
          <mxGeometry x="1" width="20" height="20" relative="1" as="geometry">
            <mxPoint x="-27" y="7" as="offset" />
          </mxGeometry>
        </mxCell>
        <mxCell id="_cARKvFAnIBeMRLMgY10-32" style="edgeStyle=orthogonalEdgeStyle;rounded=0;orthogonalLoop=1;jettySize=auto;html=1;entryX=0.5;entryY=0;entryDx=0;entryDy=0;" edge="1" parent="_cARKvFAnIBeMRLMgY10-27" source="_cARKvFAnIBeMRLMgY10-28" target="_cARKvFAnIBeMRLMgY10-30">
          <mxGeometry relative="1" as="geometry" />
        </mxCell>
        <mxCell id="_cARKvFAnIBeMRLMgY10-33" value="" style="whiteSpace=wrap;html=1;aspect=fixed;" vertex="1" parent="_cARKvFAnIBeMRLMgY10-27">
          <mxGeometry x="264" y="215" width="20" height="20" as="geometry" />
        </mxCell>
        <mxCell id="_cARKvFAnIBeMRLMgY10-35" value="" style="whiteSpace=wrap;html=1;aspect=fixed;" vertex="1" parent="_cARKvFAnIBeMRLMgY10-27">
          <mxGeometry x="83" y="95" width="20" height="20" as="geometry" />
        </mxCell>
        <mxCell id="_cARKvFAnIBeMRLMgY10-37" value="" style="rounded=0;orthogonalLoop=1;jettySize=auto;html=1;endArrow=halfCircle;endFill=0;endSize=6;strokeWidth=1;sketch=0;exitX=1;exitY=0.5;exitDx=0;exitDy=0;" edge="1" parent="_cARKvFAnIBeMRLMgY10-27">
          <mxGeometry relative="1" as="geometry">
            <mxPoint x="284" y="224.88" as="sourcePoint" />
            <mxPoint x="296" y="224.88" as="targetPoint" />
          </mxGeometry>
        </mxCell>
        <mxCell id="_cARKvFAnIBeMRLMgY10-38" value="" style="endArrow=none;html=1;rounded=0;exitX=1;exitY=0.5;exitDx=0;exitDy=0;entryX=0;entryY=0.5;entryDx=0;entryDy=0;" edge="1" parent="_cARKvFAnIBeMRLMgY10-27">
          <mxGeometry width="50" height="50" relative="1" as="geometry">
            <mxPoint x="284" y="224.88" as="sourcePoint" />
            <mxPoint x="305" y="224.88" as="targetPoint" />
          </mxGeometry>
        </mxCell>
        <mxCell id="_cARKvFAnIBeMRLMgY10-39" value="" style="rounded=0;orthogonalLoop=1;jettySize=auto;html=1;endArrow=oval;endFill=0;sketch=0;sourcePerimeterSpacing=0;targetPerimeterSpacing=0;endSize=10;exitX=0.5;exitY=0;exitDx=0;exitDy=0;" edge="1" parent="_cARKvFAnIBeMRLMgY10-27" source="_cARKvFAnIBeMRLMgY10-44">
          <mxGeometry relative="1" as="geometry">
            <mxPoint x="82" y="440" as="sourcePoint" />
            <mxPoint x="60" y="245" as="targetPoint" />
            <Array as="points">
              <mxPoint x="184" y="285" />
              <mxPoint x="60" y="285" />
            </Array>
          </mxGeometry>
        </mxCell>
        <mxCell id="_cARKvFAnIBeMRLMgY10-40" value="" style="endArrow=none;html=1;rounded=0;entryX=0;entryY=0.5;entryDx=0;entryDy=0;" edge="1" parent="_cARKvFAnIBeMRLMgY10-27" target="_cARKvFAnIBeMRLMgY10-35">
          <mxGeometry width="50" height="50" relative="1" as="geometry">
            <mxPoint x="60" y="239" as="sourcePoint" />
            <mxPoint x="60" y="105" as="targetPoint" />
            <Array as="points">
              <mxPoint x="60" y="105" />
            </Array>
          </mxGeometry>
        </mxCell>
        <mxCell id="_cARKvFAnIBeMRLMgY10-41" value="" style="endArrow=none;html=1;rounded=0;" edge="1" parent="_cARKvFAnIBeMRLMgY10-27">
          <mxGeometry width="50" height="50" relative="1" as="geometry">
            <mxPoint x="60" y="225" as="sourcePoint" />
            <mxPoint x="84" y="225" as="targetPoint" />
          </mxGeometry>
        </mxCell>
        <mxCell id="_cARKvFAnIBeMRLMgY10-43" value="" style="whiteSpace=wrap;html=1;aspect=fixed;" vertex="1" parent="1">
          <mxGeometry x="3525" y="4310" width="20" height="20" as="geometry" />
        </mxCell>
        <mxCell id="_cARKvFAnIBeMRLMgY10-44" value="" style="whiteSpace=wrap;html=1;aspect=fixed;" vertex="1" parent="1">
          <mxGeometry x="3393.75" y="4390" width="20" height="20" as="geometry" />
        </mxCell>
        <mxCell id="_cARKvFAnIBeMRLMgY10-45" value="" style="whiteSpace=wrap;html=1;aspect=fixed;" vertex="1" parent="1">
          <mxGeometry x="3393.75" y="4450" width="20" height="20" as="geometry" />
        </mxCell>
        <mxCell id="_cARKvFAnIBeMRLMgY10-47" value="" style="whiteSpace=wrap;html=1;aspect=fixed;" vertex="1" parent="1">
          <mxGeometry x="3393.75" y="4501" width="20" height="20" as="geometry" />
        </mxCell>
        <mxCell id="_cARKvFAnIBeMRLMgY10-48" value="" style="whiteSpace=wrap;html=1;aspect=fixed;" vertex="1" parent="1">
          <mxGeometry x="3483" y="4540" width="20" height="20" as="geometry" />
        </mxCell>
        <mxCell id="_cARKvFAnIBeMRLMgY10-49" value="" style="whiteSpace=wrap;html=1;aspect=fixed;" vertex="1" parent="1">
          <mxGeometry x="3654" y="4495" width="20" height="20" as="geometry" />
        </mxCell>
        <mxCell id="_cARKvFAnIBeMRLMgY10-50" value="" style="whiteSpace=wrap;html=1;aspect=fixed;" vertex="1" parent="1">
          <mxGeometry x="3745" y="4430" width="20" height="20" as="geometry" />
        </mxCell>
        <mxCell id="_cARKvFAnIBeMRLMgY10-51" value="" style="whiteSpace=wrap;html=1;aspect=fixed;" vertex="1" parent="1">
          <mxGeometry x="3745" y="4390" width="20" height="20" as="geometry" />
        </mxCell>
        <mxCell id="_cARKvFAnIBeMRLMgY10-53" value="" style="whiteSpace=wrap;html=1;aspect=fixed;" vertex="1" parent="1">
          <mxGeometry x="3744" y="4250" width="20" height="20" as="geometry" />
        </mxCell>
        <mxCell id="_cARKvFAnIBeMRLMgY10-56" value="" style="whiteSpace=wrap;html=1;aspect=fixed;" vertex="1" parent="1">
          <mxGeometry x="3304" y="4310" width="20" height="20" as="geometry" />
        </mxCell>
        <mxCell id="_cARKvFAnIBeMRLMgY10-57" value="" style="rounded=0;orthogonalLoop=1;jettySize=auto;html=1;endArrow=halfCircle;endFill=0;endSize=6;strokeWidth=1;sketch=0;exitX=0.5;exitY=1;exitDx=0;exitDy=0;" edge="1" parent="1" target="_cARKvFAnIBeMRLMgY10-59">
          <mxGeometry relative="1" as="geometry">
            <mxPoint x="3755" y="4410" as="sourcePoint" />
            <mxPoint x="3755" y="4420" as="targetPoint" />
          </mxGeometry>
        </mxCell>
        <mxCell id="_cARKvFAnIBeMRLMgY10-58" value="" style="rounded=0;orthogonalLoop=1;jettySize=auto;html=1;endArrow=oval;endFill=0;sketch=0;sourcePerimeterSpacing=0;targetPerimeterSpacing=0;endSize=10;" edge="1" parent="1" target="_cARKvFAnIBeMRLMgY10-59">
          <mxGeometry relative="1" as="geometry">
            <mxPoint x="3755" y="4430" as="sourcePoint" />
          </mxGeometry>
        </mxCell>
        <mxCell id="_cARKvFAnIBeMRLMgY10-59" value="" style="ellipse;whiteSpace=wrap;html=1;align=center;aspect=fixed;fillColor=none;strokeColor=none;resizable=0;perimeter=centerPerimeter;rotatable=0;allowArrows=0;points=[];outlineConnect=1;" vertex="1" parent="1">
          <mxGeometry x="3750" y="4418" width="10" height="10" as="geometry" />
        </mxCell>
        <mxCell id="_cARKvFAnIBeMRLMgY10-60" value="" style="rounded=0;orthogonalLoop=1;jettySize=auto;html=1;endArrow=halfCircle;endFill=0;endSize=6;strokeWidth=1;sketch=0;exitX=1;exitY=0.5;exitDx=0;exitDy=0;edgeStyle=elbowEdgeStyle;elbow=vertical;" edge="1" parent="1" source="_cARKvFAnIBeMRLMgY10-48">
          <mxGeometry relative="1" as="geometry">
            <mxPoint x="3575" y="4500" as="sourcePoint" />
            <mxPoint x="3540" y="4505" as="targetPoint" />
          </mxGeometry>
        </mxCell>
        <mxCell id="_cARKvFAnIBeMRLMgY10-61" value="" style="rounded=0;orthogonalLoop=1;jettySize=auto;html=1;endArrow=oval;endFill=0;sketch=0;sourcePerimeterSpacing=0;targetPerimeterSpacing=0;endSize=10;exitX=0;exitY=0.5;exitDx=0;exitDy=0;" edge="1" parent="1" source="_cARKvFAnIBeMRLMgY10-49">
          <mxGeometry relative="1" as="geometry">
            <mxPoint x="3575" y="4520" as="sourcePoint" />
            <mxPoint x="3540" y="4505" as="targetPoint" />
          </mxGeometry>
        </mxCell>
        <mxCell id="_cARKvFAnIBeMRLMgY10-62" value="" style="ellipse;whiteSpace=wrap;html=1;align=center;aspect=fixed;fillColor=none;strokeColor=none;resizable=0;perimeter=centerPerimeter;rotatable=0;allowArrows=0;points=[];outlineConnect=1;" vertex="1" parent="1">
          <mxGeometry x="3570" y="4508" width="10" height="10" as="geometry" />
        </mxCell>
        <mxCell id="_cARKvFAnIBeMRLMgY10-63" value="" style="rounded=0;orthogonalLoop=1;jettySize=auto;html=1;endArrow=halfCircle;endFill=0;endSize=6;strokeWidth=1;sketch=0;exitX=1;exitY=0.5;exitDx=0;exitDy=0;" edge="1" parent="1" source="_cARKvFAnIBeMRLMgY10-43">
          <mxGeometry relative="1" as="geometry">
            <mxPoint x="3551" y="4260" as="sourcePoint" />
            <mxPoint x="3560" y="4320" as="targetPoint" />
          </mxGeometry>
        </mxCell>
        <mxCell id="_cARKvFAnIBeMRLMgY10-64" value="" style="rounded=0;orthogonalLoop=1;jettySize=auto;html=1;endArrow=oval;endFill=0;sketch=0;sourcePerimeterSpacing=0;targetPerimeterSpacing=0;endSize=10;" edge="1" parent="1">
          <mxGeometry relative="1" as="geometry">
            <mxPoint x="3569" y="4505" as="sourcePoint" />
            <mxPoint x="3560" y="4320" as="targetPoint" />
            <Array as="points">
              <mxPoint x="3570" y="4320" />
            </Array>
          </mxGeometry>
        </mxCell>
        <mxCell id="_cARKvFAnIBeMRLMgY10-65" value="" style="ellipse;whiteSpace=wrap;html=1;align=center;aspect=fixed;fillColor=none;strokeColor=none;resizable=0;perimeter=centerPerimeter;rotatable=0;allowArrows=0;points=[];outlineConnect=1;" vertex="1" parent="1">
          <mxGeometry x="3605" y="4330" width="10" height="10" as="geometry" />
        </mxCell>
        <mxCell id="_cARKvFAnIBeMRLMgY10-70" value="" style="ellipse;whiteSpace=wrap;html=1;align=center;aspect=fixed;fillColor=none;strokeColor=none;resizable=0;perimeter=centerPerimeter;rotatable=0;allowArrows=0;points=[];outlineConnect=1;" vertex="1" parent="1">
          <mxGeometry x="3580" y="4518" width="10" height="10" as="geometry" />
        </mxCell>
        <mxCell id="_cARKvFAnIBeMRLMgY10-71" value="" style="rounded=0;orthogonalLoop=1;jettySize=auto;html=1;endArrow=halfCircle;endFill=0;endSize=6;strokeWidth=1;sketch=0;exitX=0.5;exitY=1;exitDx=0;exitDy=0;" edge="1" parent="1" source="_cARKvFAnIBeMRLMgY10-44">
          <mxGeometry relative="1" as="geometry">
            <mxPoint x="3400" y="4420" as="sourcePoint" />
            <mxPoint x="3404" y="4431" as="targetPoint" />
          </mxGeometry>
        </mxCell>
        <mxCell id="_cARKvFAnIBeMRLMgY10-72" value="" style="rounded=0;orthogonalLoop=1;jettySize=auto;html=1;endArrow=oval;endFill=0;sketch=0;sourcePerimeterSpacing=0;targetPerimeterSpacing=0;endSize=10;exitX=0.5;exitY=0;exitDx=0;exitDy=0;" edge="1" parent="1" source="_cARKvFAnIBeMRLMgY10-45">
          <mxGeometry relative="1" as="geometry">
            <mxPoint x="3579" y="4515" as="sourcePoint" />
            <mxPoint x="3404" y="4431" as="targetPoint" />
            <Array as="points">
              <mxPoint x="3404" y="4441" />
            </Array>
          </mxGeometry>
        </mxCell>
        <mxCell id="_cARKvFAnIBeMRLMgY10-73" value="" style="rounded=0;orthogonalLoop=1;jettySize=auto;html=1;endArrow=halfCircle;endFill=0;endSize=6;strokeWidth=1;sketch=0;exitX=0.5;exitY=1;exitDx=0;exitDy=0;" edge="1" parent="1">
          <mxGeometry relative="1" as="geometry">
            <mxPoint x="3403.75" y="4471" as="sourcePoint" />
            <mxPoint x="3404" y="4482" as="targetPoint" />
          </mxGeometry>
        </mxCell>
        <mxCell id="_cARKvFAnIBeMRLMgY10-74" value="" style="rounded=0;orthogonalLoop=1;jettySize=auto;html=1;endArrow=oval;endFill=0;sketch=0;sourcePerimeterSpacing=0;targetPerimeterSpacing=0;endSize=10;" edge="1" parent="1">
          <mxGeometry relative="1" as="geometry">
            <mxPoint x="3404" y="4501" as="sourcePoint" />
            <mxPoint x="3404" y="4482" as="targetPoint" />
            <Array as="points">
              <mxPoint x="3404" y="4494" />
              <mxPoint x="3404" y="4491" />
            </Array>
          </mxGeometry>
        </mxCell>
      </root>
    </mxGraphModel>
  </diagram>
</mxfile>
